<?xml version="1.0" encoding="utf-8"?>
<!-- Generator: Adobe Illustrator 23.0.2, SVG Export Plug-In . SVG Version: 6.00 Build 0)  -->
<svg version="1.1" id="Layer_1" xmlns="http://www.w3.org/2000/svg" xmlns:xlink="http://www.w3.org/1999/xlink" x="0px" y="0px"
	 viewBox="0 0 1920 1080" style="enable-background:new 0 0 1920 1080;" xml:space="preserve">
<style type="text/css">
	.st0{fill:#FFFFFF;}
	.st1{stroke:#000000;stroke-width:2;stroke-miterlimit:10;}
	.st2{stroke:#000000;stroke-width:11;stroke-miterlimit:10;}
	.st3{fill:none;stroke:#000000;stroke-width:9;stroke-linecap:round;stroke-linejoin:round;stroke-miterlimit:10;}
	.st4{fill:none;stroke:#000000;stroke-width:20;stroke-linecap:round;stroke-linejoin:round;stroke-miterlimit:10;}
	.st5{fill:#F28586;stroke:#F28586;stroke-width:11;stroke-miterlimit:10;}
	.st6{fill:#FCDED3;stroke:#FCDED3;stroke-width:2;stroke-miterlimit:10;}
	.st7{fill:#FCDED3;stroke:#FCDED3;stroke-width:11;stroke-miterlimit:10;}
	.st8{fill:none;stroke:#FCDED3;stroke-width:9;stroke-linecap:round;stroke-linejoin:round;stroke-miterlimit:10;}
	.st9{fill:none;stroke:#FCDED3;stroke-width:20;stroke-linecap:round;stroke-linejoin:round;stroke-miterlimit:10;}
	.st10{fill:#FFFFFF;stroke:#FFFFFF;stroke-width:2;stroke-miterlimit:10;}
	.st11{fill:#FFFFFF;stroke:#FFFFFF;stroke-width:11;stroke-miterlimit:10;}
	.st12{fill:none;stroke:#FFFFFF;stroke-width:9;stroke-linecap:round;stroke-linejoin:round;stroke-miterlimit:10;}
	.st13{fill:none;stroke:#FFFFFF;stroke-width:20;stroke-linecap:round;stroke-linejoin:round;stroke-miterlimit:10;}
	.st14{fill:#F28586;stroke:#F28586;stroke-width:2;stroke-miterlimit:10;}
	.st15{fill:none;stroke:#F28586;stroke-width:9;stroke-linecap:round;stroke-linejoin:round;stroke-miterlimit:10;}
	.st16{fill:none;stroke:#F28586;stroke-width:20;stroke-linecap:round;stroke-linejoin:round;stroke-miterlimit:10;}
	.st17{fill:#FCDED2;}
</style>
<g>
	<g>
		<path class="st14" d="M618.27,758.57c0,2.23-0.43,4.21-1.3,5.93c-0.87,1.72-2.1,3.18-3.7,4.36c-1.6,1.19-3.54,2.09-5.8,2.71
			c-2.27,0.62-4.79,0.93-7.57,0.93h-12.18v-46.53h13.32c10.37,0,15.56,3.77,15.56,11.32c0,2.52-0.6,4.68-1.8,6.48
			c-1.2,1.8-3.15,3.14-5.86,4.02c1.26,0.24,2.45,0.64,3.58,1.21c1.13,0.57,2.12,1.31,2.97,2.21s1.53,1.97,2.03,3.2
			C618.02,755.64,618.27,757.03,618.27,758.57z M610.01,738.14c0-0.95-0.14-1.84-0.43-2.69c-0.28-0.84-0.78-1.57-1.5-2.17
			c-0.71-0.61-1.67-1.09-2.88-1.44c-1.21-0.36-2.74-0.53-4.59-0.53h-6.55v14.56h6.34c1.45,0,2.76-0.15,3.93-0.46
			c1.17-0.31,2.18-0.78,3.03-1.42c0.84-0.64,1.5-1.44,1.96-2.4C609.77,740.61,610.01,739.47,610.01,738.14z M611.54,758.79
			c0-1.18-0.25-2.25-0.75-3.2s-1.22-1.75-2.17-2.4c-0.95-0.65-2.11-1.16-3.47-1.51c-1.36-0.35-2.9-0.53-4.61-0.53h-6.48v16.02h6.69
			c3.63,0,6.34-0.68,8.12-2.03C610.65,763.77,611.54,761.66,611.54,758.79z"/>
		<path class="st14" d="M661.92,772.5h-6.91l-3.24-10.15H632.4l-3.28,10.15h-6.59l15.45-46.53h8.69L661.92,772.5z M649.95,756.69
			l-7.87-24.89l-7.87,24.89H649.95z"/>
		<path class="st14" d="M699.55,772.5h-7.98l-17.41-22.82v22.82h-6.34v-46.53h6.34v21.61l17.06-21.61h7.51l-18.37,22.11
			L699.55,772.5z"/>
		<path class="st14" d="M735.97,772.5h-26.45v-46.53h26.45v5.34h-20.12v14.42h19.33v5.34h-19.33v16.02h20.12V772.5z"/>
		<path class="st14" d="M779.87,772.5h-7.16l-6.94-14.88c-0.52-1.14-1.06-2.08-1.6-2.83c-0.55-0.75-1.13-1.34-1.76-1.78
			c-0.63-0.44-1.32-0.75-2.07-0.94c-0.75-0.19-1.58-0.28-2.51-0.28h-2.99v20.72h-6.34v-46.53h12.46c2.71,0,5.03,0.3,6.98,0.89
			c1.95,0.59,3.54,1.42,4.79,2.49c1.25,1.07,2.16,2.36,2.74,3.86c0.58,1.51,0.87,3.18,0.87,5c0,1.45-0.21,2.82-0.64,4.11
			c-0.43,1.29-1.06,2.47-1.9,3.52c-0.84,1.06-1.89,1.97-3.13,2.74c-1.25,0.77-2.68,1.35-4.29,1.73c1.31,0.45,2.42,1.24,3.33,2.37
			c0.91,1.13,1.85,2.63,2.8,4.5L779.87,772.5z M769.73,738.74c0-2.49-0.78-4.35-2.33-5.59c-1.56-1.23-3.74-1.85-6.57-1.85h-5.98
			v15.38h5.13c1.5,0,2.84-0.17,4.04-0.51c1.2-0.35,2.22-0.85,3.06-1.53c0.84-0.68,1.5-1.51,1.96-2.49
			C769.49,741.16,769.73,740.02,769.73,738.74z"/>
		<path class="st14" d="M822.63,725.96l-16.84,29.91v16.63h-6.41v-16.77l-16.84-29.77h7.65l9.26,17.02l3.42,6.84l3.13-6.19
			l9.36-17.66H822.63z"/>
		<path class="st14" d="M899.18,748.21c0,3.11-0.31,5.93-0.93,8.47c-0.62,2.54-1.5,4.82-2.63,6.84l7.19,8.97h-8.23l-3.13-3.88
			c-1.69,1.42-3.57,2.51-5.64,3.26c-2.08,0.75-4.33,1.12-6.75,1.12c-2.3,0-4.34-0.32-6.12-0.96c-1.78-0.64-3.28-1.54-4.48-2.69
			c-1.21-1.15-2.13-2.52-2.76-4.11c-0.63-1.59-0.94-3.35-0.94-5.27c0-1.8,0.24-3.41,0.71-4.82c0.47-1.41,1.11-2.67,1.92-3.77
			c0.81-1.1,1.74-2.08,2.8-2.92c1.06-0.84,2.17-1.62,3.33-2.33l-0.78-1.1c-1.33-1.64-2.32-3.3-2.97-4.98
			c-0.65-1.69-0.98-3.33-0.98-4.95c0-1.71,0.27-3.29,0.82-4.74c0.54-1.45,1.35-2.7,2.4-3.76c1.06-1.06,2.36-1.88,3.92-2.47
			c1.55-0.59,3.33-0.89,5.32-0.89c1.92,0,3.61,0.27,5.06,0.82c1.45,0.55,2.66,1.29,3.63,2.24c0.97,0.95,1.7,2.05,2.19,3.29
			c0.49,1.25,0.73,2.57,0.73,3.97c0,1.78-0.3,3.34-0.91,4.68c-0.61,1.34-1.4,2.53-2.39,3.56c-0.98,1.03-2.11,1.95-3.38,2.76
			c-1.27,0.81-2.57,1.59-3.9,2.35l9.18,11.46c1.04-2.8,1.53-6.18,1.46-10.15H899.18z M871.2,759.21c0,1.26,0.2,2.41,0.6,3.45
			s0.98,1.94,1.73,2.69c0.75,0.75,1.66,1.32,2.74,1.73c1.08,0.4,2.3,0.61,3.65,0.61c3.09,0,5.79-1.14,8.12-3.42l-11.32-14.17
			c-0.81,0.55-1.55,1.13-2.23,1.75c-0.68,0.62-1.26,1.29-1.75,2.03c-0.49,0.74-0.87,1.54-1.14,2.42
			C871.34,757.17,871.2,758.15,871.2,759.21z M886.58,734.15c0-1.78-0.5-3.17-1.5-4.18c-1-1.01-2.35-1.51-4.06-1.51
			c-0.95,0-1.79,0.16-2.51,0.46c-0.72,0.31-1.33,0.74-1.83,1.28c-0.5,0.55-0.87,1.19-1.12,1.92c-0.25,0.74-0.37,1.53-0.37,2.39
			c0,1.28,0.24,2.47,0.71,3.58c0.47,1.1,1.23,2.32,2.28,3.65l0.96,1.25c1.02-0.57,1.98-1.14,2.88-1.73c0.9-0.58,1.69-1.22,2.37-1.92
			c0.68-0.7,1.21-1.47,1.6-2.32C886.38,736.17,886.58,735.22,886.58,734.15z"/>
		<path class="st14" d="M979.08,740.2c0,1.9-0.36,3.78-1.07,5.64c-0.71,1.86-1.82,3.53-3.31,5c-1.5,1.47-3.41,2.66-5.73,3.58
			c-2.33,0.91-5.1,1.37-8.33,1.37h-5.77v16.7h-6.34v-46.53h13.1c2.3,0,4.51,0.25,6.62,0.77c2.11,0.51,3.97,1.33,5.57,2.47
			c1.6,1.14,2.88,2.61,3.83,4.41C978.61,735.42,979.08,737.62,979.08,740.2z M972.49,740.49c0-2.99-0.98-5.28-2.94-6.87
			c-1.96-1.59-4.69-2.38-8.21-2.38h-6.48v19.15h5.91c3.75,0,6.64-0.82,8.67-2.46C971.48,746.29,972.49,743.81,972.49,740.49z"/>
		<path class="st14" d="M1022.73,772.5h-6.91l-3.24-10.15h-19.37l-3.28,10.15h-6.59l15.45-46.53h8.69L1022.73,772.5z
			 M1010.77,756.69l-7.87-24.89l-7.87,24.89H1010.77z"/>
		<path class="st14" d="M1060.12,731.37h-13.78v41.12h-6.41v-41.12h-13.78v-5.41h33.97V731.37z"/>
		<path class="st14" d="M1080.02,731.3h-10.72v-5.34h27.84v5.34h-10.72v35.78h10.72v5.41h-27.84v-5.41h10.72V731.3z"/>
		<path class="st14" d="M1138.77,759.89c0,2.21-0.45,4.14-1.35,5.8c-0.9,1.66-2.16,3.04-3.77,4.15c-1.62,1.1-3.55,1.93-5.82,2.47
			c-2.27,0.55-4.77,0.82-7.5,0.82c-1.23,0-2.46-0.05-3.68-0.14c-1.22-0.09-2.4-0.21-3.52-0.36c-1.13-0.14-2.19-0.31-3.19-0.5
			c-1-0.19-1.9-0.39-2.71-0.6v-6.12c1.78,0.66,3.78,1.19,6,1.57c2.22,0.38,4.74,0.57,7.57,0.57c2.04,0,3.78-0.16,5.22-0.48
			c1.44-0.32,2.61-0.79,3.52-1.42c0.91-0.63,1.58-1.39,1.99-2.3c0.42-0.9,0.62-1.93,0.62-3.1c0-1.26-0.35-2.33-1.05-3.22
			c-0.7-0.89-1.62-1.69-2.76-2.38c-1.14-0.7-2.44-1.34-3.9-1.92c-1.46-0.58-2.95-1.18-4.47-1.8c-1.52-0.62-3.01-1.29-4.47-2.01
			c-1.46-0.72-2.76-1.58-3.9-2.56c-1.14-0.98-2.06-2.14-2.76-3.47c-0.7-1.33-1.05-2.91-1.05-4.74c0-1.59,0.33-3.16,1-4.7
			c0.66-1.54,1.7-2.91,3.1-4.11c1.4-1.2,3.2-2.17,5.39-2.9c2.2-0.74,4.81-1.1,7.85-1.1c0.78,0,1.63,0.04,2.55,0.11
			c0.91,0.07,1.84,0.17,2.78,0.3c0.94,0.13,1.86,0.28,2.78,0.44c0.91,0.17,1.76,0.35,2.55,0.53v5.7c-1.83-0.52-3.66-0.92-5.48-1.19
			c-1.83-0.27-3.6-0.41-5.3-0.41c-3.63,0-6.3,0.6-8.01,1.81s-2.56,2.84-2.56,4.88c0,1.26,0.35,2.34,1.05,3.24
			c0.7,0.9,1.62,1.71,2.76,2.42c1.14,0.71,2.44,1.36,3.9,1.94c1.46,0.58,2.95,1.18,4.47,1.8c1.52,0.62,3.01,1.29,4.47,2.03
			c1.46,0.74,2.76,1.61,3.9,2.62c1.14,1.01,2.06,2.19,2.76,3.54C1138.42,756.44,1138.77,758.04,1138.77,759.89z"/>
		<path class="st14" d="M1178.86,759.89c0,2.21-0.45,4.14-1.35,5.8c-0.9,1.66-2.16,3.04-3.77,4.15c-1.62,1.1-3.55,1.93-5.82,2.47
			c-2.27,0.55-4.77,0.82-7.5,0.82c-1.23,0-2.46-0.05-3.68-0.14c-1.22-0.09-2.4-0.21-3.52-0.36c-1.13-0.14-2.19-0.31-3.19-0.5
			c-1-0.19-1.9-0.39-2.71-0.6v-6.12c1.78,0.66,3.78,1.19,6,1.57c2.22,0.38,4.74,0.57,7.57,0.57c2.04,0,3.78-0.16,5.22-0.48
			c1.44-0.32,2.61-0.79,3.52-1.42c0.91-0.63,1.58-1.39,1.99-2.3c0.42-0.9,0.62-1.93,0.62-3.1c0-1.26-0.35-2.33-1.05-3.22
			c-0.7-0.89-1.62-1.69-2.76-2.38c-1.14-0.7-2.44-1.34-3.9-1.92c-1.46-0.58-2.95-1.18-4.47-1.8c-1.52-0.62-3.01-1.29-4.47-2.01
			c-1.46-0.72-2.76-1.58-3.9-2.56c-1.14-0.98-2.06-2.14-2.76-3.47c-0.7-1.33-1.05-2.91-1.05-4.74c0-1.59,0.33-3.16,1-4.7
			c0.66-1.54,1.7-2.91,3.1-4.11c1.4-1.2,3.2-2.17,5.39-2.9c2.2-0.74,4.81-1.1,7.85-1.1c0.78,0,1.63,0.04,2.55,0.11
			c0.91,0.07,1.84,0.17,2.78,0.3c0.94,0.13,1.86,0.28,2.78,0.44c0.91,0.17,1.76,0.35,2.55,0.53v5.7c-1.83-0.52-3.66-0.92-5.48-1.19
			c-1.83-0.27-3.6-0.41-5.3-0.41c-3.63,0-6.3,0.6-8.01,1.81c-1.71,1.21-2.56,2.84-2.56,4.88c0,1.26,0.35,2.34,1.05,3.24
			c0.7,0.9,1.62,1.71,2.76,2.42c1.14,0.71,2.44,1.36,3.9,1.94c1.46,0.58,2.95,1.18,4.47,1.8c1.52,0.62,3.01,1.29,4.47,2.03
			c1.46,0.74,2.76,1.61,3.9,2.62c1.14,1.01,2.06,2.19,2.76,3.54C1178.51,756.44,1178.86,758.04,1178.86,759.89z"/>
		<path class="st14" d="M1217.06,772.5h-26.45v-46.53h26.45v5.34h-20.12v14.42h19.33v5.34h-19.33v16.02h20.12V772.5z"/>
		<path class="st14" d="M1260.96,772.5h-7.16l-6.94-14.88c-0.52-1.14-1.06-2.08-1.6-2.83c-0.55-0.75-1.13-1.34-1.76-1.78
			c-0.63-0.44-1.32-0.75-2.07-0.94c-0.75-0.19-1.58-0.28-2.51-0.28h-2.99v20.72h-6.34v-46.53h12.46c2.71,0,5.03,0.3,6.98,0.89
			c1.95,0.59,3.54,1.42,4.79,2.49c1.25,1.07,2.16,2.36,2.74,3.86c0.58,1.51,0.87,3.18,0.87,5c0,1.45-0.21,2.82-0.64,4.11
			c-0.43,1.29-1.06,2.47-1.9,3.52c-0.84,1.06-1.89,1.97-3.13,2.74c-1.25,0.77-2.68,1.35-4.29,1.73c1.31,0.45,2.42,1.24,3.33,2.37
			c0.91,1.13,1.85,2.63,2.8,4.5L1260.96,772.5z M1250.81,738.74c0-2.49-0.78-4.35-2.33-5.59c-1.56-1.23-3.74-1.85-6.57-1.85h-5.98
			v15.38h5.13c1.5,0,2.84-0.17,4.04-0.51c1.2-0.35,2.22-0.85,3.06-1.53c0.84-0.68,1.5-1.51,1.96-2.49
			C1250.58,741.16,1250.81,740.02,1250.81,738.74z"/>
		<path class="st14" d="M1280.47,731.3h-10.72v-5.34h27.84v5.34h-10.72v35.78h10.72v5.41h-27.84v-5.41h10.72V731.3z"/>
		<path class="st14" d="M1337.33,772.5h-26.45v-46.53h26.45v5.34h-20.12v14.42h19.33v5.34h-19.33v16.02h20.12V772.5z"/>
	</g>
	<g>
		<path class="st5" d="M473.39,504.37C428.77,545.5,350.9,625.19,247.36,609.35c-48.19-7.37-79.4-43.3-102.34-82.42
			c-3.44-5.86-6.37-12.02-8.55-18.46c-2.98-8.8-4.92-19.06,2.25-19.06c1.87,0,5.9,6.19,9.35,13.09c3.74,7.48,7.29,13.19,9.35,16.83
			c31.78,56.09,73.16,85.99,129.01,82.27c28.05-1.87,60.49-12.95,87.88-29.91c26.19-16.23,59.78-38.9,80.4-61.7"/>
		<path class="st5" d="M666.94,515.43c-15.07,30.12-46.15,52.27-72.18,72.01c-14.23,10.79-29.99,20.38-47.87,23.46
			c-19.53,3.36-43.58,1.91-56.67-13.05c-5.83-7.58,0.61-29.35,0-41.13c-0.27-5.19-1.77-10.68-5.44-14.66
			c-3.34-3.63-8.27-5.75-12.54-8.03c-20.45-10.91-42.7-20.85-47.46-44.62c-3.74-18.7,1.87-41.13,12.19-51.93
			c11.73-12.27,35.62-19.18,49.75-5.31c13.73,13.46,13.98,36.72,5.37,51.63c-7.09,12.27-11.22,14.96-18.7,20.57
			c6.43,3.85,8.85,5.14,15.53,8.68c29.34,11.89,21.86,32.44,21.86,53.02c0,7.48,3.38,16.65,11.22,20.57
			c3.74,1.87,5.44,2.3,12.29,3.65c28.61,5.63,58.96-10.32,81.03-26.9c11.51-8.65,21.93-18.59,32-28.85
			c6.21-6.33,12.97-12.64,17.61-20.28C665.72,512.94,667.62,514.09,666.94,515.43z M437.92,491.56c3.68,8.05,9.5,13.58,16.19,18.07
			c15.13-8.05,27.8-21.34,33.49-37.55c3.78-10.77,5.24-26.7-4-35.26c-9.65-8.94-24.46-3.26-32.92,4.32
			C436.95,453.46,429.93,474.1,437.92,491.56z"/>
		<path class="st5" d="M839.83,515.72c-10.89,15.94-25.95,28.87-40.61,41.2c-16.09,13.54-33.12,26.51-51.65,36.55
			c-15.77,8.54-34.33,16.12-52.27,9.27c-26.56-10.14-34.24-49.25-37.76-73.65c-2.41-16.67-3.18-33.35-2.74-50.18
			c0.43-16.05,0.3-35.97,6.57-50.94c4.14-9.89,17.65-8.55,18.67,2.53c0.81,8.76-1.13,17.9-1.97,26.64
			c-0.81,8.36-1.4,16.75-1.92,25.13c-1,16.33-1.97,32.95-1.2,49.3c0.68,14.49,2.81,28.99,8.25,42.52
			c6.1,15.17,16.28,23.25,32.93,22.68c15.41-0.53,30.18-9.61,42.86-17.55c16.78-10.51,32.62-22.65,47.48-35.73
			c10.56-9.3,21.76-18.86,30.55-29.92C838.29,511.98,840.96,514.08,839.83,515.72z"/>
		<path class="st5" d="M980.7,516.55c0.71-1.3,2.54-0.16,1.95,1.13c-8.13,17.83-25.97,29.9-42.89,38.58
			c-19.95,10.22-39.02,14.39-61.35,12.36c-3.91-0.36-7.87-0.78-11.84-1.13c1.05,9.99,1.13,20.05-0.34,30.2
			c-2.87,19.83-12.32,41.72-32.82,48.58c-17.17,5.75-33.99-4.84-36.74-22.26c-2.69-17.14,7.15-34.31,19.31-45.63
			c6.83-6.36,14.43-10.04,22.48-12.13c-2.59-19.29-7.84-38.17-11.7-57.22c-4.18-20.65-6.07-41.23-2.27-62.1
			c2.17-11.85,9.85-39.65,27.15-35.36c16.76,4.17,19.08,32.78,17.45,46.14c-1.94,15.93-9.34,29.98-18.94,42.46
			c6.25,21.12,13.34,42.42,16.06,64c1.93,0.11,3.86,0.23,5.81,0.39c12.5,1.07,24.76,2.17,37.11-0.72
			c9.18-2.15,18.04-5.53,26.51-9.65C952.75,545.86,971.4,533.73,980.7,516.55L980.7,516.55z M839.17,571.04
			c-0.09-0.74-0.24-1.47-0.33-2.21c-0.33,0.09-0.66,0.14-0.98,0.24c-12.39,3.62-23.17,12.34-29.7,23.42
			c-5.46,9.27-8.51,21.47-4.89,31.99c4.34,12.65,17.36,13.99,25.98,4.79c6.93-7.39,9.08-20.37,10.2-30.08
			C840.52,589.88,840.17,580.36,839.17,571.04z M842.72,471.82c1.73,8.27,3.97,16.56,6.39,24.88c12.98-18.91,21.66-41.3,13.73-64.03
			c-2.52-7.2-11.78-22.46-18.49-9.75c-2.52,4.78-3.08,10.88-3.61,16.11C839.62,450.17,840.42,460.88,842.72,471.82z"/>
		<path class="st5" d="M1292.6,516.24c-6.1,23.46-19.31,44.5-38.24,59.74c-25.02,20.14-57.73,31.08-89.88,29.81
			c-35.79-1.41-61.32-30.96-73.52-63.17c-4.84,9.51-9.57,19.08-15.17,28.22c-8.95,14.61-19.38,28.73-36.17,34.38
			c-13.59,4.57-29.33,6-41.87-2.06c-13.13-8.44-20.25-24.3-23.66-39c-7.89-34.02-3.61-73.11,14.43-103.36
			c13.94-23.37,39.04-45.56,68.2-41.26c21.88,3.22,44.26,21.11,41.76,45c-0.18,1.72-2.63,1.78-2.73,0
			c-1.43-26.57-32.93-39.75-55.22-28.92c-20.32,9.88-31.71,31.51-37.58,52.38c-6.95,24.7-7.65,53.16,0.85,77.6
			c2.39,6.87,6.77,15.7,14.63,17.13c8.58,1.56,19.93-1.43,26.72-6.74c19.26-15.07,29.93-41.83,39.09-63.61
			c3.55-8.43,17.57-11.13,19.98,0c5.16,23.82,16.41,45.51,34.42,62.12c19.26,17.75,46.66,16.98,71.29,12.03
			c39.24-7.88,66.8-33.54,80.01-71.06C1290.54,513.85,1293.04,514.5,1292.6,516.24z"/>
		<path class="st5" d="M1492.96,552.05c-23.73,40.31-49.21,55.15-67.9,58.89c-15.18,3.17-29.91,3.74-46.3,2.72
			c-23.91-1.49-46.43-7.8-65.02-22.77c-46.82-37.71-54.62-102.34-59.35-158.46c-3.58-42.36-3.44-85.03-0.03-127.42
			c-21,0.88-41.8,4.48-59.88,14.33c-2.19,1.19-4.13-2.12-1.96-3.35c15.98-9.11,34.17-13.03,52.32-14.85
			c3.28-0.33,6.59-0.5,9.89-0.71c1.54-17.8,3.59-35.56,6.29-53.21c4.66-30.44,11.16-60.61,19.34-90.3
			c4.1-14.88,8.95-29.58,14.08-44.14c5.14-14.55,10.83-29.59,18.99-42.72c6.16-9.92,20.34-3.18,18.18,7.67
			c-3.24,16.32-9.08,32.22-13.94,48.13c-4.64,15.17-8.79,30.48-12.69,45.86c-7.9,31.11-13.96,62.71-18.07,94.54
			c-1.45,11.2-2.58,22.44-3.54,33.69c27.21,0.65,54.52,3.89,81.39,6.22c35.96,3.12,75.32,7.3,110.27-4.15
			c2.33-0.76,3.28,2.85,1.01,3.65c-17.83,6.28-36.88,7.93-55.66,8.15c-39.91,0.45-79.57-5.3-119.34-7.69
			c-5.91-0.36-11.97-0.7-18.11-0.95c-3.49,44.47-3.25,89.23,0.69,133.67c4.31,48.6,8.72,109.82,52.1,140.94
			c15.49,11.11,31.96,15.63,50.76,15.61c15.66-0.01,31.11-1.26,46.46-4.45c10.82-2.41,37-11.76,56.36-40.99
			C1490.91,547.81,1494.4,549.64,1492.96,552.05z"/>
		<path class="st5" d="M1786.16,516.24c-6.1,23.46-19.31,44.5-38.24,59.74c-25.02,20.14-57.73,31.08-89.88,29.81
			c-35.79-1.41-61.32-30.96-73.52-63.17c-4.84,9.51-9.57,19.08-15.17,28.22c-8.95,14.61-19.39,28.73-36.18,34.38
			c-13.58,4.57-29.33,6-41.87-2.06c-13.13-8.44-20.25-24.3-23.66-39c-7.89-34.02-3.61-73.11,14.43-103.36
			c13.94-23.37,39.04-45.56,68.2-41.26c21.88,3.22,44.26,21.11,41.76,45c-0.18,1.72-2.63,1.78-2.73,0
			c-1.42-26.57-32.93-39.75-55.22-28.92c-20.32,9.88-31.72,31.51-37.59,52.38c-6.95,24.7-7.65,53.16,0.85,77.6
			c2.39,6.87,6.77,15.7,14.63,17.13c8.58,1.56,19.93-1.43,26.72-6.74c19.26-15.07,29.93-41.83,39.1-63.61
			c3.55-8.43,17.57-11.13,19.98,0c5.16,23.82,16.41,45.51,34.42,62.12c18.37,16.93,42.57,17.81,71.29,12.03
			c39.24-7.88,66.8-33.54,80.01-71.06C1784.1,513.85,1786.6,514.5,1786.16,516.24z"/>
	</g>
	<path class="st5" d="M724.28,312.05c-0.69-3.51-2.33-7-3.9-10.17c-1.69-3.4-4.23-6.58-6.83-9.28c-7.93-8.17-20.11-13-31.35-9.6
		c-2.69,0.81-5.24,2.16-7.62,3.79c-1.88,0.24-3.78,0.42-5.63,0.86c-5.07,1.22-9.14,4.07-12.95,7.52
		c-7.27,6.58-11.87,15.91-11.51,25.82c0.15,3.96,0.63,8.17,2.03,11.93c2.38,6.39,4.46,9.8,8.68,15.03c2.45,3.02,5.58,5.32,8.75,7.56
		c0.86,0.6,1.74,1.13,2.68,1.61c2.64,1.32,5.54,2.63,8.42,3.44c10.04,2.81,19.98,1.1,29.07-3.65c6.59-3.44,13.11-9.85,16.44-16.53
		c1.67-3.33,3.27-6.82,3.89-10.53C725.56,323.11,725.61,318.86,724.28,312.05z M709.44,307.81c-2,5.32-9.88,7.27-17.62,4.37
		c-7.73-2.9-12.39-9.57-10.39-14.88s9.88-7.27,17.62-4.37C706.79,295.82,711.44,302.49,709.44,307.81z"/>
	<path class="st15" d="M696.42,299.17c10.78-19.89,35.98-59.9,84.53-90.65c40.95-25.93,80.08-33.59,101.91-36.23"/>
	<line class="st16" x1="1394.21" y1="752.1" x2="1653.16" y2="751.16"/>
	<line class="st16" x1="270.53" y1="752.1" x2="529.48" y2="751.16"/>
	<path class="st16" d="M875.22,831.56c0,0,68.3,51.73,52.06,99.32c-5.24,15.35-18.64,26.47-34.52,29.79
		c-41.36,8.64-160.56,34.41-208.09,54.13h551.56"/>
	<path class="st16" d="M1045.67,831.56c0,0-68.3,51.73-52.06,99.32c5.24,15.35,18.64,26.47,34.52,29.79
		c41.36,8.64,160.56,34.41,208.09,54.13H684.67"/>
</g>
</svg>
